# xmcd CD Database Entry
#
# Track frame offsets:
# 150
# 42630
# 54712
# 70797
# 93727
# 127850
# 149652
# 163135
# 179340
# 195880
# 244022
# 264042
# 284525
# 313670
# 339857
#
# Disc length: 4760 seconds
#
# Revision: 2
# Processed by: cddbd v1.4PL0 Copyright (c) Steve Scherf et al.
# Submitted via: tcd 2.0b
#
DISCID=dc12960f
DTITLE=Elton John - Los Angeles 1986
DYEAR=1900
DGENRE=
TTITLE0=Rocket Man
TTITLE1=Better off dead
TTITLE2=The Bitch is back
TTITLE3=Philadelphia Freedom
TTITLE4=Someone saved my Life tonoght
TTITLE5=Song For You - Blue Eyes
TTITLE6=I guess tht's why they call it the Blues
TTITLE7=Candle in the Wind
TTITLE8=Daniel
TTITLE9=Bennie and the Jets
TTITLE10=Sad Song (Say so much)
TTITLE11=I'm still standing
TTITLE12=Nikita
TTITLE13=Saturday Night's alright for fighting
TTITLE14=Your Song
EXTD=
EXTT0=
EXTT1=
EXTT2=
EXTT3=
EXTT4=
EXTT5=
EXTT6=
EXTT7=
EXTT8=
EXTT9=
EXTT10=
EXTT11=
EXTT12=
EXTT13=
EXTT14=
PLAYORDER=
